<svg xmlns="http://www.w3.org/2000/svg" version="1.1" xmlns:xlink="http://www.w3.org/1999/xlink" xmlns:svgjs="http://svgjs.dev/svgjs" viewBox="0 0 27.194478285184466 5.829373446623601"><g transform="matrix(1,0,0,1,4.764157021883667,1.7708656748477363)"><rect width="27.194478285184466" height="27.194478285184466" x="-4.7641570218836655" y="-12.45341809412817" fill="#000000"></rect><g><path d=" M 0.3393805389797743 0.02166258759445361 L 0.2166258759445368 0.02166258759445361 L 0.2166258759445368 1.2853135306042516 L 0.29605536379086694 1.2853135306042516 L 0.29605536379086694 0.2545354042348307 L 0.3032762263223515 0.2545354042348307 L 0.8610878568795338 1.3069761181987052 L 0.8935817382712143 1.3069761181987052 L 1.4640298782584946 0.26175626676631514 L 1.471250740789979 0.26175626676631514 L 1.471250740789979 1.2853135306042516 L 1.6355253633812528 1.2853135306042516 L 1.6355253633812528 0.02166258759445361 L 1.5109654847131442 0.02166258759445361 L 0.9260756196628949 1.1065971829500088 L 0.9188547571314103 1.1065971829500088 L 0.3393805389797743 0.02166258759445361 M 1.9604659402039495 0.6534880590993526 Q 1.9604659402039495 0.7545801345401364 1.999278076310679 0.8692113272274538 Q 2.0380902124174085 0.9838425199147711 2.121130131529481 1.0813241640898128 Q 2.2041700506415536 1.1788058082648543 2.3323403605754045 1.2428909632317797 Q 2.4605106705092554 1.3069761181987052 2.6392270181634983 1.3069761181987052 Q 2.7601764655658645 1.3069761181987052 2.8585607175573418 1.2771900602563315 Q 2.956944969548819 1.2474040023139576 3.0354718495787134 1.1968579645935657 Q 3.113998729608608 1.1463119268731738 3.1717656298604844 1.0804215562733772 Q 3.229532530112361 1.0145311856735806 3.2665394505862193 0.9414199525422994 Q 3.3035463710600776 0.8683087194110182 3.3225011352052247 0.7942948784633015 Q 3.341455899350372 0.7202810375155847 3.341455899350372 0.6534880590993526 Q 3.341455899350372 0.5523959836585687 3.2999359397943353 0.4377647909712513 Q 3.2584159802382993 0.32313359828393395 3.1717656298604844 0.22565195410889238 Q 3.08511527948267 0.12817030993385092 2.952431930466641 0.06408515496692524 Q 2.8197485814506122 -2.220446049250313e-16 2.6392270181634983 -2.220446049250313e-16 Q 2.4605106705092554 -2.220446049250313e-16 2.3323403605754045 0.06318254715048988 Q 2.2041700506415536 0.12636509430097975 2.121130131529481 0.22294413065958563 Q 2.0380902124174085 0.3195231670181916 1.999278076310679 0.43505696752194467 Q 1.9604659402039495 0.5505907680256976 1.9604659402039495 0.6534880590993526 M 2.137377072225321 0.6534880590993526 Q 2.137377072225321 0.5271229647983727 2.1761892083320507 0.4215178502754111 Q 2.21500134443878 0.3159127357524494 2.282696930671448 0.24009367917186153 Q 2.3503925169041158 0.16427462259127368 2.4424585141805437 0.12185205521880182 Q 2.534524511456972 0.07942948784632997 2.6428374494292406 0.07942948784632997 Q 2.7493451717686375 0.07942948784632997 2.8441189924943724 0.12185205521880182 Q 2.9388928132201073 0.16427462259127368 3.0101988307185175 0.24009367917186153 Q 3.0815048482169276 0.3159127357524494 3.1230248077729637 0.4215178502754111 Q 3.1645447673289997 0.5271229647983727 3.1645447673289997 0.6534880590993526 Q 3.1645447673289997 0.7798531534003323 3.1230248077729637 0.8854582679232941 Q 3.0815048482169276 0.9910633824462558 3.0101988307185175 1.0668824390268437 Q 2.9388928132201073 1.1427014956074315 2.8441189924943724 1.1851240629799034 Q 2.7493451717686375 1.227546630352375 2.6428374494292406 1.227546630352375 Q 2.534524511456972 1.227546630352375 2.4424585141805437 1.1851240629799034 Q 2.3503925169041158 1.1427014956074315 2.282696930671448 1.0668824390268437 Q 2.21500134443878 0.9910633824462558 2.1761892083320507 0.8854582679232941 Q 2.137377072225321 0.7798531534003323 2.137377072225321 0.6534880590993526 M 3.6663770842082624 0.02166258759445361 L 3.6663770842082624 1.2853135306042516 L 3.830651706799536 1.2853135306042516 L 3.830651706799536 0.7275019000470693 L 3.910081194645866 0.7275019000470693 Q 3.960627232366258 0.7275019000470693 3.994023721574374 0.736527978211425 Q 4.02742021078249 0.7455540563757808 4.0544984452755575 0.7672166439702344 Q 4.081576679768625 0.7888792315646881 4.105044482995949 0.8231783285892398 Q 4.128512286223274 0.8574774256137914 4.161006167614954 0.9080234633341833 L 4.303618202611775 1.1192336923801067 Q 4.330696437104842 1.160753651936143 4.3568720637814735 1.1950527489606946 Q 4.383047690458104 1.2293518459852462 4.413736356216914 1.2537222570290065 Q 4.444425021975723 1.2780926680727671 4.483237158082453 1.292534393135736 Q 4.522049294189182 1.3069761181987052 4.576205763175317 1.3069761181987052 Q 4.6159205070984815 1.3069761181987052 4.641193525958678 1.303365686932963 Q 4.666466544818874 1.2997552556672207 4.69173956367907 1.2853135306042516 L 4.69173956367907 1.2185205521880194 Q 4.682713485514714 1.2203257678208905 4.673687407350358 1.2212283756373261 Q 4.664661329186003 1.2221309834537617 4.655635251021647 1.2221309834537617 Q 4.617725722731353 1.2221309834537617 4.588842272605415 1.211299689656535 Q 4.5599588224794765 1.200468395859308 4.534685803619281 1.1797084160812898 Q 4.509412784759085 1.1589484363032718 4.48594498153176 1.129162378360898 Q 4.462477178304435 1.099376320418524 4.437204159444239 1.0614667921282301 Q 4.361385102863651 0.9513486385230907 4.319865143307615 0.8854582679232941 Q 4.278345183751579 0.8195678973234974 4.253974772707818 0.7834635846660747 Q 4.229604361664058 0.7473592720086518 4.214260028784653 0.7311123313128116 Q 4.1989156959052485 0.7148653906169713 4.177253108310794 0.7040340968197445 L 4.159200951982084 0.6950080186553887 L 4.159200951982084 0.6877871561239042 Q 4.245851302359898 0.6823715092252908 4.308131241693952 0.6498776278336102 Q 4.370411181028007 0.6173837464419297 4.4101259249511715 0.568642924354409 Q 4.449840668874337 0.5199021022668882 4.467892825203048 0.46303780983144727 Q 4.48594498153176 0.4061735173960064 4.48594498153176 0.35201704840987214 Q 4.48594498153176 0.3032762263223514 4.466990217386613 0.24550932607047482 Q 4.448035453241466 0.18774242581859846 4.4020024546032515 0.13809899591464214 Q 4.355969455965038 0.08845556601068583 4.2765399681187075 0.055059076802569606 Q 4.197110480272377 0.02166258759445361 4.076161032870011 0.02166258759445361 L 3.6663770842082624 0.02166258759445361 M 3.830651706799536 0.1010920754407838 L 4.012978485719521 0.1010920754407838 Q 4.081576679768625 0.1010920754407838 4.136635756571194 0.12094944740236624 Q 4.191694833373764 0.1408068193639489 4.231409577296929 0.17600852420493607 Q 4.2711243212200944 0.21121022904592324 4.291884300998112 0.25995105113344397 Q 4.31264428077613 0.3086918732209648 4.31264428077613 0.3664587734728413 Q 4.31264428077613 0.4151995955603621 4.293689516630983 0.46484302546431844 Q 4.274734752485836 0.5144864553682748 4.236825224195543 0.5551038071078754 Q 4.1989156959052485 0.5957211588474761 4.143856619102679 0.6209941777076721 Q 4.088797542300109 0.646267196567868 4.016588916985263 0.646267196567868 L 3.830651706799536 0.646267196567868 L 3.830651706799536 0.1010920754407838 M 4.980605797244499 0.02166258759445361 L 4.980605797244499 1.2853135306042516 L 5.144880419835772 1.2853135306042516 L 5.144880419835772 0.7275019000470693 L 5.224309907682103 0.7275019000470693 Q 5.274855945402495 0.7275019000470693 5.30825243461061 0.736527978211425 Q 5.341648923818727 0.7455540563757808 5.368727158311794 0.7672166439702344 Q 5.395805392804861 0.7888792315646881 5.419273196032186 0.8231783285892398 Q 5.44274099925951 0.8574774256137914 5.475234880651191 0.9080234633341833 L 5.617846915648011 1.1192336923801067 Q 5.644925150141078 1.160753651936143 5.67110077681771 1.1950527489606946 Q 5.697276403494341 1.2293518459852462 5.72796506925315 1.2537222570290065 Q 5.7586537350119595 1.2780926680727671 5.797465871118689 1.292534393135736 Q 5.836278007225419 1.3069761181987052 5.890434476211553 1.3069761181987052 Q 5.930149220134718 1.3069761181987052 5.955422238994914 1.303365686932963 Q 5.9806952578551105 1.2997552556672207 6.005968276715306 1.2853135306042516 L 6.005968276715306 1.2185205521880194 Q 5.996942198550951 1.2203257678208905 5.987916120386594 1.2212283756373261 Q 5.978890042222239 1.2221309834537617 5.969863964057883 1.2221309834537617 Q 5.931954435767589 1.2221309834537617 5.9030709856416514 1.211299689656535 Q 5.874187535515713 1.200468395859308 5.848914516655517 1.1797084160812898 Q 5.823641497795321 1.1589484363032718 5.800173694567996 1.129162378360898 Q 5.776705891340671 1.099376320418524 5.751432872480475 1.0614667921282301 Q 5.6756138158998874 0.9513486385230907 5.634093856343851 0.8854582679232941 Q 5.592573896787815 0.8195678973234974 5.568203485744054 0.7834635846660747 Q 5.543833074700294 0.7473592720086518 5.5284887418208895 0.7311123313128116 Q 5.513144408941485 0.7148653906169713 5.491481821347031 0.7040340968197445 L 5.47342966501832 0.6950080186553887 L 5.47342966501832 0.6877871561239042 Q 5.560080015396134 0.6823715092252908 5.622359954730189 0.6498776278336102 Q 5.684639894064243 0.6173837464419297 5.724354637987408 0.568642924354409 Q 5.7640693819105735 0.5199021022668882 5.782121538239284 0.46303780983144727 Q 5.800173694567996 0.4061735173960064 5.800173694567996 0.35201704840987214 Q 5.800173694567996 0.3032762263223514 5.781218930422849 0.24550932607047482 Q 5.762264166277702 0.18774242581859846 5.716231167639488 0.13809899591464214 Q 5.670198169001274 0.08845556601068583 5.590768681154944 0.055059076802569606 Q 5.511339193308613 0.02166258759445361 5.390389745906247 0.02166258759445361 L 4.980605797244499 0.02166258759445361 M 5.144880419835772 0.1010920754407838 L 5.327207198755757 0.1010920754407838 Q 5.395805392804861 0.1010920754407838 5.45086446960743 0.12094944740236624 Q 5.50592354641 0.1408068193639489 5.545638290333165 0.17600852420493607 Q 5.585353034256331 0.21121022904592324 5.6061130140343485 0.25995105113344397 Q 5.626872993812366 0.3086918732209648 5.626872993812366 0.3664587734728413 Q 5.626872993812366 0.4151995955603621 5.607918229667219 0.46484302546431844 Q 5.588963465522072 0.5144864553682748 5.551053937231779 0.5551038071078754 Q 5.513144408941485 0.5957211588474761 5.458085332138915 0.6209941777076721 Q 5.4030262553363455 0.646267196567868 5.3308176300214996 0.646267196567868 L 5.144880419835772 0.646267196567868 L 5.144880419835772 0.1010920754407838 M 6.36704313559558 0.02166258759445361 L 6.36704313559558 1.2853135306042516 L 6.531317758186854 1.2853135306042516 L 6.531317758186854 0.02166258759445361 L 6.36704313559558 0.02166258759445361 M 6.905016786155986 0.9657903635860599 Q 6.908627217421729 1.0434146357995189 6.9456341378955875 1.1065971829500088 Q 6.982641058369445 1.1697797301004986 7.046726213336371 1.2140075131058414 Q 7.110811368303296 1.2582352961111845 7.197461718681112 1.2826057071549448 Q 7.284112069058926 1.3069761181987052 7.387009360132581 1.3069761181987052 Q 7.491711866839107 1.3069761181987052 7.575654393767615 1.2817030993385092 Q 7.659596920696123 1.2564300804783133 7.719169036580871 1.2094944740236637 Q 7.778741152465618 1.1625588675690142 7.811235033857299 1.095765889152782 Q 7.843728915248979 1.0289729107365497 7.843728915248979 0.9477382072573484 Q 7.843728915248979 0.8358148380193378 7.787767230629974 0.7645088205209277 Q 7.7318055460109685 0.6932028030225177 7.647863019082461 0.6453645887514324 Q 7.563920492153953 0.5975263744803472 7.465536240162476 0.5650324930886667 Q 7.367151988170998 0.5325386116969861 7.283209461242491 0.4964342990395634 Q 7.199266934313982 0.4603299863821406 7.143305249694977 0.41339437992749095 Q 7.0873435650759715 0.3664587734728413 7.0873435650759715 0.28883450125938226 Q 7.0873435650759715 0.24550932607047482 7.106298329221119 0.2075997977801809 Q 7.125253093366266 0.16969026948988697 7.162260013840124 0.14170942718038426 Q 7.199266934313982 0.11372858487088178 7.253423403300117 0.09657903635860587 Q 7.307579872286251 0.07942948784632997 7.377983281968225 0.07942948784632997 Q 7.495322298104849 0.07942948784632997 7.577459609400487 0.1290729177502863 Q 7.659596920696123 0.17871634765424282 7.674038645759092 0.2852240699936399 L 7.79679330879433 0.2852240699936399 Q 7.785962014997103 0.21843109157740792 7.748052486706809 0.16517723040770926 Q 7.710142958416515 0.1119233692380106 7.652376058164639 0.07491644876415227 Q 7.594609157912762 0.037909528290293704 7.521497924781481 0.018954764145146852 Q 7.4483866916501995 -2.220446049250313e-16 7.36895720380387 -2.220446049250313e-16 Q 7.285917284691797 -2.220446049250313e-16 7.211000835927645 0.02166258759445361 Q 7.136084387163493 0.04332517518890722 7.0792200947280515 0.08484513474494348 Q 7.02235580229261 0.12636509430097975 6.988959313084495 0.18954764145146963 Q 6.955562823876378 0.2527301886019595 6.955562823876378 0.33396489208116076 Q 6.955562823876378 0.4404726144205581 7.0097192928625125 0.5054603772039191 Q 7.063875761848647 0.5704481399872802 7.1460130731442835 0.6137733151761875 Q 7.22815038443992 0.6570984903650948 7.323826812982091 0.6877871561239042 Q 7.419503241524262 0.7184758218827136 7.501640552819898 0.7572879579894432 Q 7.583777864115535 0.7961000940961727 7.637934333101669 0.852061778715178 Q 7.692090802087804 0.9080234633341833 7.692090802087804 1.0018946762434826 Q 7.692090802087804 1.1192336923801067 7.6063430595264245 1.173390161366241 Q 7.5205953169650455 1.227546630352375 7.377983281968225 1.227546630352375 Q 7.264254697097344 1.227546630352375 7.19565650304824 1.1977605724100013 Q 7.127058308999136 1.1679745144676275 7.090953996341714 1.1264545549115912 Q 7.054849683684291 1.0849345953555551 7.042213174254194 1.0407068123502121 Q 7.029576664824095 0.9964790293448691 7.027771449191224 0.9657903635860599 L 6.905016786155986 0.9657903635860599 M 9.91426717350489 1.0524407139638745 Q 9.730135178952033 1.225741414719504 9.477404990350074 1.225741414719504 Q 9.336598170986123 1.225741414719504 9.228285233013857 1.177000592631983 Q 9.119972295041588 1.1282597705444624 9.047763669726741 1.047025067065261 Q 8.975555044411896 0.9657903635860599 8.938548123938038 0.8592826412466625 Q 8.901541203464179 0.7527749189072652 8.901541203464179 0.6372411184035123 Q 8.901541203464179 0.5144864553682748 8.940353339570908 0.41249177211105537 Q 8.979165475677638 0.310497088853836 9.049568885359612 0.2364832479061192 Q 9.119972295041588 0.1624694069584025 9.216551331400193 0.12094944740236624 Q 9.313130367758799 0.07942948784632997 9.426858952629681 0.07942948784632997 Q 9.50448322484314 0.07942948784632997 9.568568379810065 0.09748164417504146 Q 9.632653534776992 0.11553380050375273 9.682296964680948 0.14441725062969102 Q 9.731940394584903 0.1733007007556293 9.763531668160148 0.21030762122948765 Q 9.795122941735393 0.247314541703346 9.807759451165492 0.2852240699936399 L 9.941345407997956 0.2852240699936399 Q 9.91426717350489 0.2238467384760212 9.871844606132417 0.17149548512275814 Q 9.829422038759946 0.11914423176949507 9.766239491609456 0.08123470347920114 Q 9.703056944458966 0.04332517518890722 9.618211809714023 0.02166258759445361 Q 9.533366674969079 -2.220446049250313e-16 9.42505373699681 -2.220446049250313e-16 Q 9.267999976937022 -2.220446049250313e-16 9.138927059186734 0.04513039082177839 Q 9.009854141436447 0.09026078164355678 8.91778814416002 0.1742033085720649 Q 8.825722146883592 0.2581458355005728 8.7751761091632 0.3763874594536326 Q 8.724630071442808 0.4946290834066922 8.724630071442808 0.6408515496692546 Q 8.724630071442808 0.7672166439702344 8.765247423182409 0.8872634835561652 Q 8.805864774922009 1.0073103231420961 8.890709909666953 1.1002789282349597 Q 8.975555044411896 1.1932475333278234 9.10733578561149 1.2501118257632644 Q 9.239116526811083 1.3069761181987052 9.421443305731067 1.3069761181987052 Q 9.53697710623482 1.3069761181987052 9.628140495694813 1.2853135306042516 Q 9.719303885154806 1.263650943009798 9.786999471387475 1.232059669434553 Q 9.854695057620141 1.200468395859308 9.89982544844192 1.1643640832018851 Q 9.944955839263699 1.1282597705444624 9.968423642491024 1.1011815360513952 L 9.91426717350489 1.0524407139638745 M 10.112790650302808 0.6534880590993526 Q 10.112790650302808 0.7545801345401364 10.151602786409537 0.8692113272274538 Q 10.190414922516267 0.9838425199147711 10.273454841628338 1.0813241640898128 Q 10.35649476074041 1.1788058082648543 10.484665070674263 1.2428909632317797 Q 10.612835380608113 1.3069761181987052 10.791551728262355 1.3069761181987052 Q 10.912501175664723 1.3069761181987052 11.010885427656198 1.2771900602563315 Q 11.109269679647676 1.2474040023139576 11.18779655967757 1.1968579645935657 Q 11.266323439707465 1.1463119268731738 11.324090339959342 1.0804215562733772 Q 11.381857240211218 1.0145311856735806 11.418864160685077 0.9414199525422994 Q 11.455871081158936 0.8683087194110182 11.474825845304082 0.7942948784633015 Q 11.493780609449228 0.7202810375155847 11.493780609449228 0.6534880590993526 Q 11.493780609449228 0.5523959836585687 11.452260649893192 0.4377647909712513 Q 11.410740690337157 0.32313359828393395 11.324090339959342 0.22565195410889238 Q 11.237439989581528 0.12817030993385092 11.104756640565498 0.06408515496692524 Q 10.972073291549469 -2.220446049250313e-16 10.791551728262355 -2.220446049250313e-16 Q 10.612835380608113 -2.220446049250313e-16 10.484665070674263 0.06318254715048988 Q 10.35649476074041 0.12636509430097975 10.273454841628338 0.22294413065958563 Q 10.190414922516267 0.3195231670181916 10.151602786409537 0.43505696752194467 Q 10.112790650302808 0.5505907680256976 10.112790650302808 0.6534880590993526 M 10.289701782324178 0.6534880590993526 Q 10.289701782324178 0.5271229647983727 10.328513918430907 0.4215178502754111 Q 10.367326054537637 0.3159127357524494 10.435021640770305 0.24009367917186153 Q 10.502717227002973 0.16427462259127368 10.594783224279402 0.12185205521880182 Q 10.68684922155583 0.07942948784632997 10.795162159528097 0.07942948784632997 Q 10.901669881867495 0.07942948784632997 10.99644370259323 0.12185205521880182 Q 11.091217523318965 0.16427462259127368 11.162523540817375 0.24009367917186153 Q 11.233829558315785 0.3159127357524494 11.27534951787182 0.4215178502754111 Q 11.316869477427858 0.5271229647983727 11.316869477427858 0.6534880590993526 Q 11.316869477427858 0.7798531534003323 11.27534951787182 0.8854582679232941 Q 11.233829558315785 0.9910633824462558 11.162523540817375 1.0668824390268437 Q 11.091217523318965 1.1427014956074315 10.99644370259323 1.1851240629799034 Q 10.901669881867495 1.227546630352375 10.795162159528097 1.227546630352375 Q 10.68684922155583 1.227546630352375 10.594783224279402 1.1851240629799034 Q 10.502717227002973 1.1427014956074315 10.435021640770305 1.0668824390268437 Q 10.367326054537637 0.9910633824462558 10.328513918430907 0.8854582679232941 Q 10.289701782324178 0.7798531534003323 10.289701782324178 0.6534880590993526 M 12.836843411246443 0.02166258759445361 L 12.836843411246443 0.9874529511805135 L 12.829622548714958 0.9874529511805135 L 11.827727872471476 -2.220446049250313e-16 L 11.81870179430712 -2.220446049250313e-16 L 11.81870179430712 1.2853135306042516 L 11.901741713419193 1.2853135306042516 L 11.901741713419193 0.3195231670181916 L 11.908962575950678 0.3195231670181916 L 12.91085725219416 1.3069761181987052 L 12.919883330358516 1.3069761181987052 L 12.919883330358516 0.02166258759445361 L 12.836843411246443 0.02166258759445361 M 13.22131026840071 0.9657903635860599 Q 13.224920699666452 1.0434146357995189 13.26192762014031 1.1065971829500088 Q 13.29893454061417 1.1697797301004986 13.363019695581094 1.2140075131058414 Q 13.42710485054802 1.2582352961111845 13.513755200925834 1.2826057071549448 Q 13.600405551303648 1.3069761181987052 13.703302842377305 1.3069761181987052 Q 13.80800534908383 1.3069761181987052 13.891947876012338 1.2817030993385092 Q 13.975890402940847 1.2564300804783133 14.035462518825593 1.2094944740236637 Q 14.095034634710341 1.1625588675690142 14.127528516102021 1.095765889152782 Q 14.160022397493702 1.0289729107365497 14.160022397493702 0.9477382072573484 Q 14.160022397493702 0.8358148380193378 14.104060712874697 0.7645088205209277 Q 14.048099028255692 0.6932028030225177 13.964156501327183 0.6453645887514324 Q 13.880213974398675 0.5975263744803472 13.781829722407199 0.5650324930886667 Q 13.683445470415721 0.5325386116969861 13.599502943487213 0.4964342990395634 Q 13.515560416558706 0.4603299863821406 13.4595987319397 0.41339437992749095 Q 13.403637047320695 0.3664587734728413 13.403637047320695 0.28883450125938226 Q 13.403637047320695 0.24550932607047482 13.422591811465843 0.2075997977801809 Q 13.441546575610989 0.16969026948988697 13.478553496084848 0.14170942718038426 Q 13.515560416558706 0.11372858487088178 13.569716885544839 0.09657903635860587 Q 13.623873354530973 0.07942948784632997 13.694276764212947 0.07942948784632997 Q 13.811615780349573 0.07942948784632997 13.893753091645209 0.1290729177502863 Q 13.975890402940847 0.17871634765424282 13.990332128003816 0.2852240699936399 L 14.113086791039052 0.2852240699936399 Q 14.102255497241826 0.21843109157740792 14.064345968951532 0.16517723040770926 Q 14.026436440661238 0.1119233692380106 13.968669540409362 0.07491644876415227 Q 13.910902640157484 0.037909528290293704 13.837791407026204 0.018954764145146852 Q 13.764680173894924 -2.220446049250313e-16 13.685250686048592 -2.220446049250313e-16 Q 13.60221076693652 -2.220446049250313e-16 13.527294318172368 0.02166258759445361 Q 13.452377869408215 0.04332517518890722 13.395513576972775 0.08484513474494348 Q 13.338649284537334 0.12636509430097975 13.305252795329217 0.18954764145146963 Q 13.271856306121101 0.2527301886019595 13.271856306121101 0.33396489208116076 Q 13.271856306121101 0.4404726144205581 13.326012775107236 0.5054603772039191 Q 13.38016924409337 0.5704481399872802 13.462306555389008 0.6137733151761875 Q 13.544443866684643 0.6570984903650948 13.640120295226815 0.6877871561239042 Q 13.735796723768985 0.7184758218827136 13.81793403506462 0.7572879579894432 Q 13.900071346360258 0.7961000940961727 13.954227815346393 0.852061778715178 Q 14.008384284332527 0.9080234633341833 14.008384284332527 1.0018946762434826 Q 14.008384284332527 1.1192336923801067 13.922636541771148 1.173390161366241 Q 13.836888799209769 1.227546630352375 13.694276764212947 1.227546630352375 Q 13.580548179342067 1.227546630352375 13.511949985292963 1.1977605724100013 Q 13.44335179124386 1.1679745144676275 13.407247478586438 1.1264545549115912 Q 13.371143165929015 1.0849345953555551 13.358506656498916 1.0407068123502121 Q 13.345870147068819 0.9964790293448691 13.344064931435947 0.9657903635860599 L 13.22131026840071 0.9657903635860599 M 14.445246467487344 0.02166258759445361 L 14.445246467487344 0.7979053097290438 Q 14.445246467487344 0.8719191506767605 14.459688192550312 0.9612773245038819 Q 14.474129917613281 1.0506354983310033 14.528286386599415 1.1273571627280268 Q 14.58244285558555 1.2040788271250502 14.688950577924947 1.2555274726618777 Q 14.795458300264345 1.3069761181987052 14.9795902948172 1.3069761181987052 Q 15.095124095320953 1.3069761181987052 15.184482269148075 1.2708718055412824 Q 15.273840442975196 1.2347674928838597 15.33431516667638 1.1715849457333698 Q 15.394789890377563 1.10840239858288 15.425478556136373 1.0244598716543718 Q 15.456167221895182 0.9405173447258639 15.456167221895182 0.8448409161836934 L 15.456167221895182 0.02166258759445361 L 15.376737734048852 0.02166258759445361 L 15.376737734048852 0.7852688002989457 Q 15.376737734048852 0.8249835442221108 15.37493251841598 0.8656008959617115 Q 15.373127302783109 0.9062182477013121 15.364101224618754 0.9468355994409128 Q 15.355075146454398 0.9874529511805135 15.33612038230925 1.0271676951036786 Q 15.317165618164104 1.0668824390268437 15.28106130550668 1.1065971829500088 Q 15.21607354272332 1.177000592631983 15.134838839244118 1.202273611492179 Q 15.053604135764918 1.227546630352375 14.965148569754232 1.227546630352375 Q 14.889329513173644 1.227546630352375 14.830660005105331 1.2040788271250502 Q 14.77199049703702 1.1806110238977254 14.719639243683757 1.1336754174430759 Q 14.678119284127721 1.097571104785653 14.656456696533267 1.0614667921282301 Q 14.634794108938813 1.0253624794708074 14.623962815141587 0.9901607746298202 Q 14.613131521344359 0.9549590697888329 14.611326305711488 0.9188547571314101 Q 14.609521090078617 0.8827504444739873 14.609521090078617 0.8466461318165646 L 14.609521090078617 0.02166258759445361 L 14.445246467487344 0.02166258759445361 M 15.835209617621377 1.2853135306042516 L 15.835209617621377 0.02166258759445361 L 15.99948424021265 0.02166258759445361 L 15.99948424021265 1.186026670796339 L 16.651167083679134 1.186026670796339 L 16.651167083679134 1.2853135306042516 L 15.835209617621377 1.2853135306042516 M 17.11874790199291 1.2853135306042516 L 17.11874790199291 0.12094944740236624 L 17.602545691602376 0.12094944740236624 L 17.602545691602376 0.02166258759445361 L 16.47067548979217 0.02166258759445361 L 16.47067548979217 0.12094944740236624 L 16.95447327940164 0.12094944740236624 L 16.95447327940164 1.2853135306042516 L 17.11874790199291 1.2853135306042516 M 17.945522558600764 0.02166258759445361 L 17.945522558600764 1.2853135306042516 L 18.109797181192036 1.2853135306042516 L 18.109797181192036 0.02166258759445361 L 17.945522558600764 0.02166258759445361 M 19.651470723628798 0.02166258759445361 L 19.651470723628798 0.9874529511805135 L 19.64424986109731 0.9874529511805135 L 18.64235518485383 -2.220446049250313e-16 L 18.633329106689473 -2.220446049250313e-16 L 18.633329106689473 1.2853135306042516 L 18.716369025801544 1.2853135306042516 L 18.716369025801544 0.3195231670181916 L 18.72358988833303 0.3195231670181916 L 19.72548456457651 1.3069761181987052 L 19.73451064274087 1.3069761181987052 L 19.73451064274087 0.02166258759445361 L 19.651470723628798 0.02166258759445361 M 21.33569283645028 0.7220862531484559 L 20.978260141141796 0.7220862531484559 L 20.978260141141796 0.7961000940961727 L 21.180444292023363 0.7961000940961727 L 21.180444292023363 1.122844123645849 Q 21.099209588544163 1.175195376999112 21.014364453799217 1.200468395859308 Q 20.929519319054275 1.225741414719504 20.821206381082007 1.225741414719504 Q 20.678594346085188 1.225741414719504 20.57208662374579 1.1824162395305966 Q 20.465578901406392 1.1390910643416892 20.395175491724416 1.0623693999446657 Q 20.324772082042443 0.9856477355476423 20.289570377201457 0.8800426210246806 Q 20.254368672360467 0.7744375065017189 20.254368672360467 0.6480724122007392 Q 20.254368672360467 0.5235125335326305 20.287765161568586 0.41881002682610435 Q 20.321161650776702 0.3141075201195782 20.387954629192933 0.23828846353899036 Q 20.454747607609164 0.1624694069584025 20.55132664396777 0.12094944740236624 Q 20.647905680326378 0.07942948784632997 20.776075990260228 0.07942948784632997 Q 20.86092112500517 0.07942948784632997 20.934934965952888 0.09748164417504146 Q 21.008948806900605 0.11553380050375273 21.066715707152483 0.14441725062969102 Q 21.124482607404357 0.1733007007556293 21.161489527878217 0.21030762122948765 Q 21.198496448352074 0.247314541703346 21.209327742149302 0.2852240699936399 L 21.339303267716023 0.2852240699936399 Q 21.323056327020183 0.24550932607047482 21.284244190913455 0.1958658961665185 Q 21.245432054806724 0.1462224662625622 21.178639076390493 0.10289729107365475 Q 21.11184609797426 0.059572115884747534 21.013461845982782 0.029786057942373656 Q 20.915077593991306 -2.220446049250313e-16 20.78149163715884 -2.220446049250313e-16 Q 20.628048308364793 -2.220446049250313e-16 20.498975390614508 0.04332517518890722 Q 20.369902472864222 0.08665035037781466 20.276031259954923 0.1678850538570158 Q 20.182160047045624 0.24911975733621716 20.12980879369236 0.36736138128927687 Q 20.077457540339097 0.48560300524233657 20.077457540339097 0.6354359027706412 Q 20.077457540339097 0.7636062127044921 20.1180748920787 0.8836530522904229 Q 20.158692243818297 1.0036998918763538 20.242634770746808 1.0984737126020887 Q 20.326577297675314 1.1932475333278234 20.456552823242035 1.2501118257632644 Q 20.58652834880876 1.3069761181987052 20.76704991209587 1.3069761181987052 Q 20.902441084561207 1.3069761181987052 21.007143591267734 1.2771900602563315 Q 21.11184609797426 1.2474040023139576 21.180444292023363 1.211299689656535 L 21.180444292023363 1.2853135306042516 L 21.33569283645028 1.2853135306042516 L 21.33569283645028 0.7220862531484559" fill="#ffffff" fill-rule="nonzero"></path></g><g><path d=" M 0.43842427563028813 1.7222203835230148 L 0.2572304790598369 2.0676210582354373 L 0.2572304790598369 2.287642096928128 L 0.20060741763157094 2.287642096928128 L 0.20060741763157094 2.0676210582354373 L 0.017795819306026455 1.7222203835230148 L 0.08169898863221237 1.7222203835230148 L 0.22891894834570395 2.0158514020724514 L 0.3753300071816489 1.7222203835230148 L 0.43842427563028813 1.7222203835230148 M 0.640670428486928 2.2564994131425817 Q 0.5767672591607421 2.219694423214209 0.5399622692323692 2.1537690016941564 Q 0.5031572793039962 2.0878435801741038 0.5031572793039962 2.004526789786798 Q 0.5031572793039962 1.9212099993994924 0.5399622692323692 1.85528457787944 Q 0.5767672591607421 1.7893591563593874 0.640670428486928 1.7525541664310145 Q 0.7045735978131139 1.7157491765026416 0.7830369829351396 1.7157491765026416 Q 0.862309268934712 1.7157491765026416 0.9262124382608979 1.7525541664310145 Q 0.9901156075870838 1.7893591563593874 1.0265161470766835 1.85528457787944 Q 1.062916686566283 1.9212099993994924 1.062916686566283 2.004526789786798 Q 1.062916686566283 2.0878435801741038 1.0265161470766835 2.1537690016941564 Q 0.9901156075870838 2.219694423214209 0.9262124382608979 2.2564994131425817 Q 0.862309268934712 2.293304403070955 0.7830369829351396 2.293304403070955 Q 0.7045735978131139 2.293304403070955 0.640670428486928 2.2564994131425817 M 0.8962831057916716 2.214841017948929 Q 0.9464349601995643 2.1857205863572493 0.9755553917912441 2.13111977712285 Q 1.0046758233829236 2.076518967888451 1.0046758233829236 2.004526789786798 Q 1.0046758233829236 1.9325346116851456 0.9755553917912441 1.8783382528895196 Q 0.9464349601995643 1.8241418940938936 0.8962831057916716 1.795021462502214 Q 0.8461312513837789 1.7659010309105343 0.7830369829351396 1.7659010309105343 Q 0.7199427144865004 1.7659010309105343 0.6697908600786077 1.795021462502214 Q 0.6196390056707148 1.8241418940938936 0.5905185740790353 1.8783382528895196 Q 0.5613981424873556 1.9325346116851456 0.5613981424873556 2.004526789786798 Q 0.5613981424873556 2.076518967888451 0.5905185740790353 2.13111977712285 Q 0.6196390056707148 2.1857205863572493 0.6697908600786077 2.214841017948929 Q 0.7199427144865004 2.243961449540609 0.7830369829351396 2.243961449540609 Q 0.8461312513837789 2.243961449540609 0.8962831057916716 2.214841017948929 M 1.22876150999106 1.7222203835230148 L 1.22876150999106 2.0781367696435438 Q 1.22876150999106 2.1622624609083965 1.2688021034296197 2.202707504785729 Q 1.3088426968681792 2.243152548663062 1.3784081723371917 2.243152548663062 Q 1.4479736478062042 2.243152548663062 1.487205340367217 2.2031119552245024 Q 1.52643703292823 2.163071361785943 1.52643703292823 2.0781367696435438 L 1.52643703292823 1.7222203835230148 L 1.5830600943564959 1.7222203835230148 L 1.5830600943564959 2.0773278687659973 Q 1.5830600943564959 2.184911685479703 1.5260325824894565 2.2391080442753286 Q 1.4690050706224174 2.293304403070955 1.377599271459645 2.293304403070955 Q 1.2861934722968729 2.293304403070955 1.2291659604298335 2.2391080442753286 Q 1.1721384485627941 2.184911685479703 1.1721384485627941 2.0773278687659973 L 1.1721384485627941 1.7222203835230148 L 1.22876150999106 1.7222203835230148 M 2.0182574558414927 2.287642096928128 L 1.8783176040259213 2.051443040684504 L 1.7739693908224026 2.051443040684504 L 1.7739693908224026 2.287642096928128 L 1.7173463293941365 2.287642096928128 L 1.7173463293941365 1.7222203835230148 L 1.8872155136789346 1.7222203835230148 Q 1.9818569163518933 1.7222203835230148 2.030795419443466 1.7675188326656275 Q 2.079733922535039 1.8128172818082404 2.079733922535039 1.8864272616649862 Q 2.079733922535039 1.947903728358532 2.0445467343617594 1.9911799253072784 Q 2.0093595461884797 2.0344561222560245 1.940602971597014 2.047398536296771 L 2.0862051295554123 2.287642096928128 L 2.0182574558414927 2.287642096928128 M 1.7739693908224026 2.005335690664345 L 1.8880244145564813 2.005335690664345 Q 1.954354286515307 2.005335690664345 1.9879236729334933 1.9729796555624786 Q 2.0214930593516796 1.9406236204606122 2.0214930593516796 1.8864272616649862 Q 2.0214930593516796 1.8306131011142668 1.9891370242498132 1.8002793182062673 Q 1.956780989147947 1.7699455352982676 1.8872155136789346 1.7699455352982676 L 1.7739693908224026 1.7699455352982676 L 1.7739693908224026 2.005335690664345 M 2.775357869476898 2.0441629327865845 Q 2.808522805456311 2.0837990757863705 2.808522805456311 2.1363776328269033 Q 2.808522805456311 2.179249379336876 2.7870869322013245 2.213627666632609 Q 2.765651058946338 2.248005953928342 2.7243971141914587 2.267824025428235 Q 2.6831431694365793 2.287642096928128 2.6257112071307667 2.287642096928128 L 2.4299571947644756 2.287642096928128 L 2.4299571947644756 1.7222203835230148 L 2.62004890098794 1.7222203835230148 Q 2.7057923940078856 1.7222203835230148 2.750686392711725 1.761856526522801 Q 2.7955803914155646 1.8014926695225872 2.7955803914155646 1.8645869379712265 Q 2.7955803914155646 1.9171654950117591 2.7672688607014315 1.9499259805523987 Q 2.7389573299872985 1.9826864660930386 2.6944677817222322 1.995628880133785 Q 2.742192933497485 2.004526789786798 2.775357869476898 2.0441629327865845 M 2.4865802561927413 1.9721707546849319 L 2.6184310992328466 1.9721707546849319 Q 2.675863061538659 1.9721707546849319 2.7070057453242056 1.945072575287119 Q 2.738148429109752 1.9179743958893058 2.738148429109752 1.870249244114053 Q 2.738148429109752 1.8233329932163471 2.7070057453242056 1.7966392642573072 Q 2.675863061538659 1.7699455352982676 2.6160043966002067 1.7699455352982676 L 2.4865802561927413 1.7699455352982676 L 2.4865802561927413 1.9721707546849319 M 2.717521456732312 2.2107965135611956 Q 2.751899744028045 2.181676081969516 2.751899744028045 2.1307153266840766 Q 2.751899744028045 2.079754571398637 2.7159036549772186 2.0494207884906377 Q 2.6799075659263925 2.019087005582638 2.619240000110393 2.019087005582638 L 2.4865802561927413 2.019087005582638 L 2.4865802561927413 2.2399169451528755 L 2.621666702743033 2.2399169451528755 Q 2.6831431694365793 2.2399169451528755 2.717521456732312 2.2107965135611956 M 2.975144142125842 1.7222203835230148 L 2.975144142125842 2.0781367696435438 Q 2.975144142125842 2.1622624609083965 3.0151847355644015 2.202707504785729 Q 3.055225329002961 2.243152548663062 3.1247908044719734 2.243152548663062 Q 3.194356279940986 2.243152548663062 3.233587972501999 2.2031119552245024 Q 3.272819665063012 2.163071361785943 3.272819665063012 2.0781367696435438 L 3.272819665063012 1.7222203835230148 L 3.329442726491278 1.7222203835230148 L 3.329442726491278 2.0773278687659973 Q 3.329442726491278 2.184911685479703 3.2724152146242385 2.2391080442753286 Q 3.2153877027571993 2.293304403070955 3.123981903594427 2.293304403070955 Q 3.0325761044316546 2.293304403070955 2.9755485925646155 2.2391080442753286 Q 2.918521080697576 2.184911685479703 2.918521080697576 2.0773278687659973 L 2.918521080697576 1.7222203835230148 L 2.975144142125842 1.7222203835230148 M 3.5369344909468907 2.273890782009835 Q 3.4944671948756914 2.2544771609487153 3.4702001685492916 2.219694423214209 Q 3.445933142222892 2.184911685479703 3.4443153404677984 2.14203993896973 L 3.504174005406251 2.14203993896973 Q 3.508218509793984 2.1832938837246094 3.5405745448958506 2.214436567510156 Q 3.572930579997717 2.245579251295702 3.6352159475688097 2.245579251295702 Q 3.6926479098746223 2.245579251295702 3.7262172962928086 2.216054369265249 Q 3.759786682710995 2.186529487234796 3.759786682710995 2.141231038092183 Q 3.759786682710995 2.104830498602584 3.7411819625274214 2.0825857244700505 Q 3.7225772423438483 2.0603409503375176 3.695074612507262 2.0494207884906377 Q 3.667571982670676 2.0385006266437578 3.6190379300178765 2.0255582126030114 Q 3.5624148685896104 2.0101890959296247 3.5292499326101976 1.995628880133785 Q 3.4960849966307848 1.9810686643379452 3.4726268711819315 1.9503304309911722 Q 3.4491687457330786 1.9195921976443993 3.4491687457330786 1.8670136406038664 Q 3.4491687457330786 1.8233329932163471 3.471817970304385 1.7889547059206141 Q 3.4944671948756914 1.7545764186248811 3.5357211396305708 1.7351627975637613 Q 3.57697508438545 1.7157491765026416 3.6303625423035295 1.7157491765026416 Q 3.7088259274255555 1.7157491765026416 3.7569555296395816 1.7541719681861077 Q 3.8050851318536076 1.792594759869574 3.8123652397515273 1.8532623256855734 L 3.7508887730579814 1.8532623256855734 Q 3.745226466915155 1.8184795879510671 3.712870431813289 1.791381408553254 Q 3.6805143967114224 1.7642832291554411 3.6255091370382497 1.7642832291554411 Q 3.5745483817528103 1.7642832291554411 3.5405745448958506 1.791381408553254 Q 3.5066007080388912 1.8184795879510671 3.5066007080388912 1.865395838848773 Q 3.5066007080388912 1.9009874774608262 3.5252054282224643 1.9228278011545858 Q 3.5438101484060374 1.9446681248483455 3.571717228681397 1.9559927371339987 Q 3.5996243089567566 1.9673173494196519 3.6473494607320096 1.9802597634603984 Q 3.7023547204051823 1.995628880133785 3.7363285572621416 2.010593546368398 Q 3.7703023941191014 2.0255582126030114 3.7937605195679542 2.0562964459497843 Q 3.8172186450168075 2.0870346792965573 3.8172186450168075 2.138804335459543 Q 3.8172186450168075 2.1784404784593296 3.796187222200594 2.2140321170713824 Q 3.775155799384381 2.249623755683435 3.7339018546295017 2.271464079377195 Q 3.6926479098746223 2.293304403070955 3.6352159475688097 2.293304403070955 Q 3.57940178701809 2.293304403070955 3.5369344909468907 2.273890782009835 M 3.9911497124191295 1.7222203835230148 L 3.9911497124191295 2.287642096928128 L 3.934526650990864 2.287642096928128 L 3.934526650990864 1.7222203835230148 L 3.9911497124191295 1.7222203835230148 M 4.554147882960656 2.287642096928128 L 4.49752482153239 2.287642096928128 L 4.184480181921834 1.8120083809306937 L 4.184480181921834 2.287642096928128 L 4.127857120493568 2.287642096928128 L 4.127857120493568 1.7222203835230148 L 4.184480181921834 1.7222203835230148 L 4.49752482153239 2.1970451986429027 L 4.49752482153239 1.7222203835230148 L 4.554147882960656 1.7222203835230148 L 4.554147882960656 2.287642096928128 M 4.747454259224331 1.7683277335431744 L 4.747454259224331 1.9794508625828517 L 4.961812991774195 1.9794508625828517 L 4.961812991774195 2.026367113480558 L 4.747454259224331 2.026367113480558 L 4.747454259224331 2.240725846030422 L 4.986080018100595 2.240725846030422 L 4.986080018100595 2.287642096928128 L 4.690831197796065 2.287642096928128 L 4.690831197796065 1.7214114826454683 L 4.986080018100595 1.7214114826454683 L 4.986080018100595 1.7683277335431744 L 4.747454259224331 1.7683277335431744 M 5.178995372943972 2.273890782009835 Q 5.136528076872772 2.2544771609487153 5.112261050546373 2.219694423214209 Q 5.087994024219973 2.184911685479703 5.08637622246488 2.14203993896973 L 5.146234887403333 2.14203993896973 Q 5.150279391791066 2.1832938837246094 5.182635426892932 2.214436567510156 Q 5.214991461994798 2.245579251295702 5.277276829565891 2.245579251295702 Q 5.334708791871703 2.245579251295702 5.36827817828989 2.216054369265249 Q 5.401847564708076 2.186529487234796 5.401847564708076 2.141231038092183 Q 5.401847564708076 2.104830498602584 5.383242844524503 2.0825857244700505 Q 5.36463812434093 2.0603409503375176 5.337135494504343 2.0494207884906377 Q 5.3096328646677575 2.0385006266437578 5.261098812014958 2.0255582126030114 Q 5.204475750586692 2.0101890959296247 5.171310814607279 1.995628880133785 Q 5.138145878627866 1.9810686643379452 5.114687753179013 1.9503304309911722 Q 5.09122962773016 1.9195921976443993 5.09122962773016 1.8670136406038664 Q 5.09122962773016 1.8233329932163471 5.113878852301466 1.7889547059206141 Q 5.136528076872772 1.7545764186248811 5.177782021627652 1.7351627975637613 Q 5.219035966382532 1.7157491765026416 5.272423424300611 1.7157491765026416 Q 5.3508868094226365 1.7157491765026416 5.399016411636663 1.7541719681861077 Q 5.447146013850689 1.792594759869574 5.454426121748609 1.8532623256855734 L 5.392949655055063 1.8532623256855734 Q 5.387287348912237 1.8184795879510671 5.35493131381037 1.791381408553254 Q 5.322575278708504 1.7642832291554411 5.267570019035331 1.7642832291554411 Q 5.216609263749891 1.7642832291554411 5.182635426892932 1.791381408553254 Q 5.148661590035973 1.8184795879510671 5.148661590035973 1.865395838848773 Q 5.148661590035973 1.9009874774608262 5.167266310219546 1.9228278011545858 Q 5.185871030403119 1.9446681248483455 5.213778110678478 1.9559927371339987 Q 5.241685190953838 1.9673173494196519 5.289410342729091 1.9802597634603984 Q 5.344415602402264 1.995628880133785 5.378389439259223 2.010593546368398 Q 5.412363276116182 2.0255582126030114 5.435821401565036 2.0562964459497843 Q 5.459279527013889 2.0870346792965573 5.459279527013889 2.138804335459543 Q 5.459279527013889 2.1784404784593296 5.438248104197676 2.2140321170713824 Q 5.417216681381463 2.249623755683435 5.375962736626583 2.271464079377195 Q 5.334708791871703 2.293304403070955 5.277276829565891 2.293304403070955 Q 5.221462669015172 2.293304403070955 5.178995372943972 2.273890782009835 M 5.649793062405918 2.273890782009835 Q 5.607325766334718 2.2544771609487153 5.583058740008318 2.219694423214209 Q 5.558791713681918 2.184911685479703 5.557173911926825 2.14203993896973 L 5.617032576865278 2.14203993896973 Q 5.621077081253011 2.1832938837246094 5.653433116354877 2.214436567510156 Q 5.685789151456744 2.245579251295702 5.748074519027837 2.245579251295702 Q 5.805506481333649 2.245579251295702 5.839075867751835 2.216054369265249 Q 5.872645254170021 2.186529487234796 5.872645254170021 2.141231038092183 Q 5.872645254170021 2.104830498602584 5.854040533986448 2.0825857244700505 Q 5.835435813802875 2.0603409503375176 5.807933183966289 2.0494207884906377 Q 5.780430554129703 2.0385006266437578 5.731896501476903 2.0255582126030114 Q 5.675273440048637 2.0101890959296247 5.642108504069224 1.995628880133785 Q 5.608943568089812 1.9810686643379452 5.585485442640959 1.9503304309911722 Q 5.562027317192105 1.9195921976443993 5.562027317192105 1.8670136406038664 Q 5.562027317192105 1.8233329932163471 5.584676541763412 1.7889547059206141 Q 5.607325766334718 1.7545764186248811 5.648579711089598 1.7351627975637613 Q 5.6898336558444775 1.7157491765026416 5.743221113762557 1.7157491765026416 Q 5.821684498884582 1.7157491765026416 5.8698141010986085 1.7541719681861077 Q 5.917943703312634 1.792594759869574 5.925223811210555 1.8532623256855734 L 5.863747344517009 1.8532623256855734 Q 5.858085038374182 1.8184795879510671 5.825729003272316 1.791381408553254 Q 5.793372968170449 1.7642832291554411 5.738367708497276 1.7642832291554411 Q 5.687406953211837 1.7642832291554411 5.653433116354877 1.791381408553254 Q 5.619459279497918 1.8184795879510671 5.619459279497918 1.865395838848773 Q 5.619459279497918 1.9009874774608262 5.638063999681491 1.9228278011545858 Q 5.656668719865064 1.9446681248483455 5.684575800140424 1.9559927371339987 Q 5.7124828804157834 1.9673173494196519 5.760208032191036 1.9802597634603984 Q 5.815213291864209 1.995628880133785 5.8491871287211685 2.010593546368398 Q 5.883160965578128 2.0255582126030114 5.906619091026982 2.0562964459497843 Q 5.930077216475834 2.0870346792965573 5.930077216475834 2.138804335459543 Q 5.930077216475834 2.1784404784593296 5.9090457936596215 2.2140321170713824 Q 5.8880143708434085 2.249623755683435 5.846760426088529 2.271464079377195 Q 5.805506481333649 2.293304403070955 5.748074519027837 2.293304403070955 Q 5.692260358477117 2.293304403070955 5.649793062405918 2.273890782009835 M 6.099154878612877 2.193809595132716 L 6.015029187348024 2.40574162504994 L 5.976201945225784 2.40574162504994 L 6.036060610164237 2.193809595132716 L 6.099154878612877 2.193809595132716 M 6.536738260703957 2.2564994131425817 Q 6.472835091377771 2.219694423214209 6.436030101449398 2.1537690016941564 Q 6.399225111521025 2.0878435801741038 6.399225111521025 2.004526789786798 Q 6.399225111521025 1.9212099993994924 6.436030101449398 1.85528457787944 Q 6.472835091377771 1.7893591563593874 6.536738260703957 1.7525541664310145 Q 6.600641430030143 1.7157491765026416 6.679104815152169 1.7157491765026416 Q 6.758377101151741 1.7157491765026416 6.822280270477927 1.7525541664310145 Q 6.886183439804113 1.7893591563593874 6.922583979293712 1.85528457787944 Q 6.958984518783312 1.9212099993994924 6.958984518783312 2.004526789786798 Q 6.958984518783312 2.0878435801741038 6.922583979293712 2.1537690016941564 Q 6.886183439804113 2.219694423214209 6.822280270477927 2.2564994131425817 Q 6.758377101151741 2.293304403070955 6.679104815152169 2.293304403070955 Q 6.600641430030143 2.293304403070955 6.536738260703957 2.2564994131425817 M 6.792350938008701 2.214841017948929 Q 6.842502792416593 2.1857205863572493 6.871623224008273 2.13111977712285 Q 6.900743655599952 2.076518967888451 6.900743655599952 2.004526789786798 Q 6.900743655599952 1.9325346116851456 6.871623224008273 1.8783382528895196 Q 6.842502792416593 1.8241418940938936 6.792350938008701 1.795021462502214 Q 6.742199083600807 1.7659010309105343 6.679104815152169 1.7659010309105343 Q 6.61601054670353 1.7659010309105343 6.565858692295636 1.795021462502214 Q 6.515706837887744 1.8241418940938936 6.486586406296064 1.8783382528895196 Q 6.457465974704385 1.9325346116851456 6.457465974704385 2.004526789786798 Q 6.457465974704385 2.076518967888451 6.486586406296064 2.13111977712285 Q 6.515706837887744 2.1857205863572493 6.565858692295636 2.214841017948929 Q 6.61601054670353 2.243961449540609 6.679104815152169 2.243961449540609 Q 6.742199083600807 2.243961449540609 6.792350938008701 2.214841017948929 M 7.1248293422080895 1.7222203835230148 L 7.1248293422080895 2.0781367696435438 Q 7.1248293422080895 2.1622624609083965 7.1648699356466485 2.202707504785729 Q 7.2049105290852085 2.243152548663062 7.274476004554221 2.243152548663062 Q 7.344041480023233 2.243152548663062 7.383273172584246 2.2031119552245024 Q 7.4225048651452585 2.163071361785943 7.4225048651452585 2.0781367696435438 L 7.4225048651452585 1.7222203835230148 L 7.479127926573525 1.7222203835230148 L 7.479127926573525 2.0773278687659973 Q 7.479127926573525 2.184911685479703 7.4221004147064855 2.2391080442753286 Q 7.365072902839446 2.293304403070955 7.273667103676674 2.293304403070955 Q 7.182261304513902 2.293304403070955 7.1252337926468625 2.2391080442753286 Q 7.068206280779823 2.184911685479703 7.068206280779823 2.0773278687659973 L 7.068206280779823 1.7222203835230148 L 7.1248293422080895 1.7222203835230148 M 7.914325288058523 2.287642096928128 L 7.774385436242951 2.051443040684504 L 7.670037223039432 2.051443040684504 L 7.670037223039432 2.287642096928128 L 7.613414161611166 2.287642096928128 L 7.613414161611166 1.7222203835230148 L 7.783283345895963 1.7222203835230148 Q 7.8779247485689226 1.7222203835230148 7.926863251660495 1.7675188326656275 Q 7.9758017547520685 1.8128172818082404 7.9758017547520685 1.8864272616649862 Q 7.9758017547520685 1.947903728358532 7.940614566578788 1.9911799253072784 Q 7.905427378405509 2.0344561222560245 7.836670803814043 2.047398536296771 L 7.982272961772441 2.287642096928128 L 7.914325288058523 2.287642096928128 M 7.670037223039432 2.005335690664345 L 7.78409224677351 2.005335690664345 Q 7.850422118732336 2.005335690664345 7.883991505150522 1.9729796555624786 Q 7.917560891568709 1.9406236204606122 7.917560891568709 1.8864272616649862 Q 7.917560891568709 1.8306131011142668 7.885204856466842 1.8002793182062673 Q 7.852848821364976 1.7699455352982676 7.783283345895963 1.7699455352982676 L 7.670037223039432 1.7699455352982676 L 7.670037223039432 2.005335690664345 M 8.399230556399477 2.273890782009835 Q 8.356763260328277 2.2544771609487153 8.332496234001878 2.219694423214209 Q 8.308229207675478 2.184911685479703 8.306611405920385 2.14203993896973 L 8.366470070858837 2.14203993896973 Q 8.37051457524657 2.1832938837246094 8.402870610348437 2.214436567510156 Q 8.435226645450303 2.245579251295702 8.497512013021396 2.245579251295702 Q 8.554943975327209 2.245579251295702 8.588513361745395 2.216054369265249 Q 8.622082748163582 2.186529487234796 8.622082748163582 2.141231038092183 Q 8.622082748163582 2.104830498602584 8.603478027980008 2.0825857244700505 Q 8.584873307796435 2.0603409503375176 8.557370677959849 2.0494207884906377 Q 8.529868048123262 2.0385006266437578 8.481333995470463 2.0255582126030114 Q 8.424710934042196 2.0101890959296247 8.391545998062783 1.995628880133785 Q 8.358381062083371 1.9810686643379452 8.334922936634518 1.9503304309911722 Q 8.311464811185665 1.9195921976443993 8.311464811185665 1.8670136406038664 Q 8.311464811185665 1.8233329932163471 8.33411403575697 1.7889547059206141 Q 8.356763260328277 1.7545764186248811 8.398017205083157 1.7351627975637613 Q 8.439271149838037 1.7157491765026416 8.492658607756116 1.7157491765026416 Q 8.571121992878142 1.7157491765026416 8.619251595092168 1.7541719681861077 Q 8.667381197306193 1.792594759869574 8.674661305204113 1.8532623256855734 L 8.613184838510568 1.8532623256855734 Q 8.60752253236774 1.8184795879510671 8.575166497265874 1.791381408553254 Q 8.542810462164008 1.7642832291554411 8.487805202490836 1.7642832291554411 Q 8.436844447205397 1.7642832291554411 8.402870610348437 1.791381408553254 Q 8.368896773491477 1.8184795879510671 8.368896773491477 1.865395838848773 Q 8.368896773491477 1.9009874774608262 8.38750149367505 1.9228278011545858 Q 8.406106213858623 1.9446681248483455 8.434013294133983 1.9559927371339987 Q 8.461920374409344 1.9673173494196519 8.509645526184595 1.9802597634603984 Q 8.564650785857769 1.995628880133785 8.598624622714729 2.010593546368398 Q 8.632598459571687 2.0255582126030114 8.65605658502054 2.0562964459497843 Q 8.679514710469393 2.0870346792965573 8.679514710469393 2.138804335459543 Q 8.679514710469393 2.1784404784593296 8.65848328765318 2.2140321170713824 Q 8.637451864836967 2.249623755683435 8.596197920082087 2.271464079377195 Q 8.554943975327209 2.293304403070955 8.497512013021396 2.293304403070955 Q 8.441697852470677 2.293304403070955 8.399230556399477 2.273890782009835 M 8.851019075239076 1.7222203835230148 L 8.851019075239076 2.0781367696435438 Q 8.851019075239076 2.1622624609083965 8.891059668677636 2.202707504785729 Q 8.931100262116196 2.243152548663062 9.000665737585209 2.243152548663062 Q 9.070231213054221 2.243152548663062 9.109462905615233 2.2031119552245024 Q 9.148694598176247 2.163071361785943 9.148694598176247 2.0781367696435438 L 9.148694598176247 1.7222203835230148 L 9.205317659604512 1.7222203835230148 L 9.205317659604512 2.0773278687659973 Q 9.205317659604512 2.184911685479703 9.148290147737473 2.2391080442753286 Q 9.091262635870434 2.293304403070955 8.999856836707663 2.293304403070955 Q 8.90845103754489 2.293304403070955 8.85142352567785 2.2391080442753286 Q 8.794396013810811 2.184911685479703 8.794396013810811 2.0773278687659973 L 8.794396013810811 1.7222203835230148 L 8.851019075239076 1.7222203835230148 M 9.350119606050258 1.85528457787944 Q 9.386520145539858 1.7893591563593874 9.449614413988497 1.7525541664310145 Q 9.512708682437138 1.7157491765026416 9.590363166681616 1.7157491765026416 Q 9.685004569354575 1.7157491765026416 9.752547792629722 1.760643175206481 Q 9.820091015904866 1.8055371739103205 9.850829249251639 1.887236162542533 L 9.784499377292814 1.887236162542533 Q 9.760232350966414 1.8298042002367203 9.710484946997294 1.797448165134854 Q 9.660737543028175 1.7650921300329876 9.590363166681616 1.7650921300329876 Q 9.528077799110523 1.7650921300329876 9.478330395141404 1.7942125616246674 Q 9.428582991172284 1.8233329932163471 9.400271460458152 1.8779338024507464 Q 9.371959929744019 1.9325346116851456 9.371959929744019 2.004526789786798 Q 9.371959929744019 2.076518967888451 9.400271460458152 2.1307153266840766 Q 9.428582991172284 2.184911685479703 9.478330395141404 2.2140321170713824 Q 9.528077799110523 2.243152548663062 9.590363166681616 2.243152548663062 Q 9.660737543028175 2.243152548663062 9.710484946997294 2.211200963999969 Q 9.760232350966414 2.179249379336876 9.784499377292814 2.12262631790861 L 9.850829249251639 2.12262631790861 Q 9.820091015904866 2.203516405663276 9.752143342190948 2.248005953928342 Q 9.68419566847703 2.292495502193408 9.590363166681616 2.292495502193408 Q 9.512708682437138 2.292495502193408 9.449614413988497 2.2556905122650353 Q 9.386520145539858 2.218885522336662 9.350119606050258 2.153364551255383 Q 9.31371906656066 2.0878435801741038 9.31371906656066 2.004526789786798 Q 9.31371906656066 1.9212099993994924 9.350119606050258 1.85528457787944 M 9.981868031645144 1.85528457787944 Q 10.018268571134744 1.7893591563593874 10.081362839583383 1.7525541664310145 Q 10.144457108032023 1.7157491765026416 10.222111592276502 1.7157491765026416 Q 10.31675299494946 1.7157491765026416 10.384296218224607 1.760643175206481 Q 10.451839441499752 1.8055371739103205 10.482577674846524 1.887236162542533 L 10.4162478028877 1.887236162542533 Q 10.391980776561299 1.8298042002367203 10.34223337259218 1.797448165134854 Q 10.29248596862306 1.7650921300329876 10.222111592276502 1.7650921300329876 Q 10.159826224705409 1.7650921300329876 10.11007882073629 1.7942125616246674 Q 10.06033141676717 1.8233329932163471 10.032019886053037 1.8779338024507464 Q 10.003708355338905 1.9325346116851456 10.003708355338905 2.004526789786798 Q 10.003708355338905 2.076518967888451 10.032019886053037 2.1307153266840766 Q 10.06033141676717 2.184911685479703 10.11007882073629 2.2140321170713824 Q 10.159826224705409 2.243152548663062 10.222111592276502 2.243152548663062 Q 10.29248596862306 2.243152548663062 10.34223337259218 2.211200963999969 Q 10.391980776561299 2.179249379336876 10.4162478028877 2.12262631790861 L 10.482577674846524 2.12262631790861 Q 10.451839441499752 2.203516405663276 10.383891767785833 2.248005953928342 Q 10.315944094071915 2.292495502193408 10.222111592276502 2.292495502193408 Q 10.144457108032023 2.292495502193408 10.081362839583383 2.2556905122650353 Q 10.018268571134744 2.218885522336662 9.981868031645144 2.153364551255383 Q 9.945467492155545 2.0878435801741038 9.945467492155545 2.004526789786798 Q 9.945467492155545 1.9212099993994924 9.981868031645144 1.85528457787944 M 10.659723807260189 1.7683277335431744 L 10.659723807260189 1.9794508625828517 L 10.874082539810054 1.9794508625828517 L 10.874082539810054 2.026367113480558 L 10.659723807260189 2.026367113480558 L 10.659723807260189 2.240725846030422 L 10.898349566136453 2.240725846030422 L 10.898349566136453 2.287642096928128 L 10.603100745831924 2.287642096928128 L 10.603100745831924 1.7214114826454683 L 10.898349566136453 1.7214114826454683 L 10.898349566136453 1.7683277335431744 L 10.659723807260189 1.7683277335431744 M 11.09126492097983 2.273890782009835 Q 11.04879762490863 2.2544771609487153 11.024530598582231 2.219694423214209 Q 11.00026357225583 2.184911685479703 10.998645770500739 2.14203993896973 L 11.05850443543919 2.14203993896973 Q 11.062548939826923 2.1832938837246094 11.09490497492879 2.214436567510156 Q 11.127261010030656 2.245579251295702 11.189546377601749 2.245579251295702 Q 11.246978339907562 2.245579251295702 11.280547726325748 2.216054369265249 Q 11.314117112743935 2.186529487234796 11.314117112743935 2.141231038092183 Q 11.314117112743935 2.104830498602584 11.295512392560362 2.0825857244700505 Q 11.276907672376788 2.0603409503375176 11.249405042540202 2.0494207884906377 Q 11.221902412703615 2.0385006266437578 11.173368360050816 2.0255582126030114 Q 11.11674529862255 2.0101890959296247 11.083580362643136 1.995628880133785 Q 11.050415426663724 1.9810686643379452 11.026957301214871 1.9503304309911722 Q 11.003499175766018 1.9195921976443993 11.003499175766018 1.8670136406038664 Q 11.003499175766018 1.8233329932163471 11.026148400337323 1.7889547059206141 Q 11.04879762490863 1.7545764186248811 11.09005156966351 1.7351627975637613 Q 11.13130551441839 1.7157491765026416 11.18469297233647 1.7157491765026416 Q 11.263156357458495 1.7157491765026416 11.31128595967252 1.7541719681861077 Q 11.359415561886546 1.792594759869574 11.366695669784466 1.8532623256855734 L 11.305219203090921 1.8532623256855734 Q 11.299556896948094 1.8184795879510671 11.267200861846227 1.791381408553254 Q 11.23484482674436 1.7642832291554411 11.17983956707119 1.7642832291554411 Q 11.12887881178575 1.7642832291554411 11.09490497492879 1.791381408553254 Q 11.06093113807183 1.8184795879510671 11.06093113807183 1.865395838848773 Q 11.06093113807183 1.9009874774608262 11.079535858255403 1.9228278011545858 Q 11.098140578438976 1.9446681248483455 11.126047658714336 1.9559927371339987 Q 11.153954738989697 1.9673173494196519 11.201679890764948 1.9802597634603984 Q 11.256685150438122 1.995628880133785 11.290658987295082 2.010593546368398 Q 11.32463282415204 2.0255582126030114 11.348090949600893 2.0562964459497843 Q 11.371549075049746 2.0870346792965573 11.371549075049746 2.138804335459543 Q 11.371549075049746 2.1784404784593296 11.350517652233533 2.2140321170713824 Q 11.32948622941732 2.249623755683435 11.288232284662442 2.271464079377195 Q 11.246978339907562 2.293304403070955 11.189546377601749 2.293304403070955 Q 11.13373221705103 2.293304403070955 11.09126492097983 2.273890782009835 M 11.562062610441775 2.273890782009835 Q 11.519595314370575 2.2544771609487153 11.495328288044176 2.219694423214209 Q 11.471061261717775 2.184911685479703 11.469443459962683 2.14203993896973 L 11.529302124901134 2.14203993896973 Q 11.533346629288868 2.1832938837246094 11.565702664390734 2.214436567510156 Q 11.5980586994926 2.245579251295702 11.660344067063694 2.245579251295702 Q 11.717776029369507 2.245579251295702 11.751345415787693 2.216054369265249 Q 11.78491480220588 2.186529487234796 11.78491480220588 2.141231038092183 Q 11.78491480220588 2.104830498602584 11.766310082022306 2.0825857244700505 Q 11.747705361838733 2.0603409503375176 11.720202732002146 2.0494207884906377 Q 11.69270010216556 2.0385006266437578 11.64416604951276 2.0255582126030114 Q 11.587542988084493 2.0101890959296247 11.554378052105081 1.995628880133785 Q 11.521213116125669 1.9810686643379452 11.497754990676816 1.9503304309911722 Q 11.474296865227963 1.9195921976443993 11.474296865227963 1.8670136406038664 Q 11.474296865227963 1.8233329932163471 11.496946089799268 1.7889547059206141 Q 11.519595314370575 1.7545764186248811 11.560849259125455 1.7351627975637613 Q 11.602103203880334 1.7157491765026416 11.655490661798414 1.7157491765026416 Q 11.73395404692044 1.7157491765026416 11.782083649134465 1.7541719681861077 Q 11.830213251348491 1.792594759869574 11.83749335924641 1.8532623256855734 L 11.776016892552866 1.8532623256855734 Q 11.770354586410038 1.8184795879510671 11.737998551308172 1.791381408553254 Q 11.705642516206305 1.7642832291554411 11.650637256533134 1.7642832291554411 Q 11.599676501247695 1.7642832291554411 11.565702664390734 1.791381408553254 Q 11.531728827533774 1.8184795879510671 11.531728827533774 1.865395838848773 Q 11.531728827533774 1.9009874774608262 11.550333547717347 1.9228278011545858 Q 11.56893826790092 1.9446681248483455 11.59684534817628 1.9559927371339987 Q 11.624752428451641 1.9673173494196519 11.672477580226893 1.9802597634603984 Q 11.727482839900066 1.995628880133785 11.761456676757026 2.010593546368398 Q 11.795430513613985 2.0255582126030114 11.818888639062838 2.0562964459497843 Q 11.84234676451169 2.0870346792965573 11.84234676451169 2.138804335459543 Q 11.84234676451169 2.1784404784593296 11.821315341695477 2.2140321170713824 Q 11.800283918879265 2.249623755683435 11.759029974124385 2.271464079377195 Q 11.717776029369507 2.293304403070955 11.660344067063694 2.293304403070955 Q 11.604529906512974 2.293304403070955 11.562062610441775 2.273890782009835" fill="#eda0a0" fill-rule="nonzero"></path></g><g clip-path="url(&quot;#SvgjsClipPath1002&quot;)"><g clip-path="url(&quot;#SvgjsClipPath1000187f57a2-821c-47e3-b236-06f7835cc57b&quot;)"><path d=" M -3.701806005687515 0.14679959333367876 L -3.1079316831628323 0.48937605262685446 L -2.088654027140867 -0.09886378865945378 L -1.069376371118902 0.48937605262685446 L -0.4760654967180562 0.14679959333367876 L -2.088654027140867 -0.7845801553696425 L -3.701806005687515 0.14679959333367876 Z" fill="#8cc63e" transform="matrix(1,0,0,1,0,0)" fill-rule="evenodd"></path></g><g clip-path="url(&quot;#SvgjsClipPath1000187f57a2-821c-47e3-b236-06f7835cc57b&quot;)"><path d=" M -0.3999999999999999 0.27864645431164425 L -0.9933108744008452 0.6212229136048202 L -0.9933108744008452 1.7982660443012732 L -2.0125885304228097 2.386505885587582 L -2.0125885304228097 3.0722222522977707 L -0.3999999999999999 2.1414059517182866 L -0.3999999999999999 0.27864645431164425 Z" fill="#2c7b5b" transform="matrix(1,0,0,1,0,0)" fill-rule="evenodd"></path></g><g clip-path="url(&quot;#SvgjsClipPath1000187f57a2-821c-47e3-b236-06f7835cc57b&quot;)"><path d=" M -2.1652829719827613 3.0722222522977707 L -2.1652829719827613 2.386505885587582 L -3.185124076128564 1.7982660443012732 L -3.185124076128564 0.6212229136048202 L -3.777871502405572 0.27864645431164425 L -3.777871502405572 2.1414059517182866 L -2.1652829719827613 3.0722222522977707 Z" fill="#589f43" transform="matrix(1,0,0,1,0,0)" fill-rule="evenodd"></path></g></g></g><defs><clipPath id="SvgjsClipPath1002"><path d=" M -3.777871502405572 -0.7845801553696425 h 3.377871502405572 v 3.8568024076674132 h -3.377871502405572 Z"></path></clipPath><clipPath id="SvgjsClipPath1000187f57a2-821c-47e3-b236-06f7835cc57b"><path d=" M -3.777871502405572 -0.7845801553696425 L -0.3999999999999999 -0.7845801553696425 L -0.3999999999999999 3.0722222522977707 L -3.777871502405572 3.0722222522977707 Z"></path></clipPath></defs></svg>